<svg xmlns="http://www.w3.org/2000/svg" fill-rule="evenodd" height="160" width="465" version="1.1" viewBox="0 0 372 128">
 <path fill="#2c2c2b" d="m108.59 69.554h-14.274l4.275-11.583h14.279l-4.28 11.583zm159.69-37.712v69.278h11.2c1.9 0 3.7-0.1 5.12-0.89l2.81-1.563v11.163h-29.71c0.77-1.13 1.33-2.49 1.59-4.1 0.07-0.43 0.11-1.01 0.16-1.69 0.05-0.69 0.08-1.42 0.08-2.17v-85.761c0-1.609-0.08-2.882-0.24-3.789-0.28-1.608-0.82-2.969-1.59-4.096l22.99-0.272v11.161c-1.44-0.907-2.67-1.551-3.69-1.916s-2.45-0.65-4.24-0.541l-4.48 0.272v6.122h20.01v11.206c-0.76-0.469-1.39-0.844-1.89-1.097-0.51-0.257-1.04-0.522-1.62-0.732-1.15-0.418-2.62-0.585-4.42-0.585h-12.08zm-20.65-13.012c0-0.6-0.21-1.112-0.63-1.566-0.41-0.438-0.94-0.658-1.55-0.658h-15.79v5.723h15.79c0.58 0 1.11-0.201 1.53-0.6 0.43-0.406 0.65-2.3 0.65-2.899zm7.25 0.348c0 0.76-0.05 1.506-0.18 2.252-0.14 0.746-0.38 1.522-0.75 2.327-0.37 0.804-0.79 1.524-1.29 2.165-0.49 0.631-1 1.212-1.52 1.697-1.25 1.153-2.72 1.916-4.42 2.267-0.56 0.117-1.31 0.19-2.22 0.19h-14.81v70.354c0 0.75 0.03 1.44 0.05 2.07 0.02 0.62 0.06 1.17 0.14 1.64 0.26 1.5 0.78 2.92 1.53 4.25h-12.29c0.77-1.13 1.33-2.48 1.59-4.09 0.07-0.44 0.11-1.01 0.16-1.7s0.08-1.42 0.08-2.17v-84.593c0-1.61-0.08-2.882-0.24-3.789-0.28-1.609-0.82-2.97-1.59-4.096h25.38c1.33 0 2.76 0.292 4.31 0.877s2.75 1.361 3.62 2.297c0.86 0.951 1.47 2.064 1.87 3.35 0.39 1.273 0.58 3.532 0.58 4.702zm-95.57 12.391v50.284h4.41c1.91 0 3.71-0.103 5.12-0.892l2.81-1.566v11.162h-22.92c0.78-1.126 1.33-2.485 1.6-4.096 0.07-0.437 0.11-1.009 0.16-1.697 0.05-0.687 0.07-1.419 0.07-2.165v-66.762c0-1.61-0.08-2.882-0.23-3.789-0.28-1.609-0.82-2.97-1.6-4.096h21.97v11.161c-1.43-0.907-2.66-1.551-3.68-1.916-1.03-0.365-2.45-0.541-4.25-0.541h-3.46v6.121h17.4v11.206c-0.76-0.468-1.39-0.843-1.89-1.097-0.5-0.257-1.04-0.521-1.62-0.732-1.15-0.417-2.62-0.585-4.42-0.585h-9.47zm-109.91 78.261h-20.159-21.639c0.775-1.13 1.33-2.49 1.594-4.1 0.072-0.43 0.11-1.01 0.161-1.69 0.051-0.69 0.073-1.42 0.073-2.17v-86.033c0-1.61-0.076-2.883-0.234-3.789-0.28-1.609-0.819-2.97-1.594-4.096h13.005c-1.624 2.867-2.429 5.486-2.429 7.885v85.283h23.337c2.312 0 4.945-0.81 7.885-2.453v11.163zm-12.544-78.261v50.284h4.416c1.902 0 3.703-0.103 5.12-0.892l2.809-1.566v11.162h-22.921c0.775-1.126 1.329-2.485 1.594-4.096 0.072-0.437 0.11-1.009 0.161-1.697 0.051-0.687 0.073-1.419 0.073-2.165v-66.762c0-1.61-0.076-2.882-0.234-3.789-0.28-1.609-0.819-2.97-1.594-4.096h21.969v11.161c-1.433-0.907-2.662-1.551-3.686-1.916s-2.444-0.541-4.243-0.541h-3.464v6.121h17.402v11.206c-0.761-0.468-1.386-0.843-1.887-1.097-0.507-0.257-1.045-0.521-1.624-0.732-1.147-0.417-2.619-0.585-4.418-0.585h-9.473zm63.846-6.035c-0.47 10.845-6.343 25.134-13.344 47.864-3.225 10.47-7.937 25.345-13.879 31.812-5.559 6.04-10.706 4.62-17.159 4.67 0.775-1.79 1.317-3.96 1.595-6.47 0.161-1.4 0.234-3.3 0.234-5.66v-77.907c0-1.115-0.03-2.186-0.073-3.236-0.059-1.027-0.103-1.857-0.161-2.535-0.278-2.405-0.82-4.438-1.595-6.12h23.231c18.453 0 21.491 9.647 21.151 17.582zm-33.787-8.524v80.571c2.384-2.969 4.274-6.928 5.938-11.337 6.43-19.008 12.98-37.483 17.038-54.523 1.726-7.248 3.061-13.958-7.459-14.576-5.489-0.135-10.029 0-15.517-0.135zm79.757-9.058-35.15 92.003h49.84c2.03 0 3.77-0.178 5.22-0.541 1.46-0.367 2.98-1.024 4.58-1.961v10.897h-73.117l35.457-92.118h-12.93c-0.76 0-1.48 0.058-2.17 0.175s-1.42 0.337-2.21 0.571c-1.03 0.306-2.4 0.863-4.07 1.755v-10.781h34.55zm60.57 10.878c0-0.6-0.2-1.112-0.62-1.566-0.42-0.438-0.94-0.658-1.56-0.658h-15.78v5.723h15.78c0.59 0 1.12-0.201 1.54-0.6 0.43-0.406 0.64-2.3 0.64-2.899zm7.26 0.348c0 0.76-0.06 1.506-0.19 2.252s-0.38 1.522-0.75 2.327c-0.36 0.804-0.78 1.524-1.28 2.165-0.5 0.631-1 1.212-1.52 1.697-1.25 1.153-2.72 1.916-4.42 2.267-0.57 0.117-1.32 0.19-2.22 0.19h-14.81v70.354c0 0.75 0.02 1.44 0.04 2.07 0.03 0.62 0.07 1.17 0.15 1.64 0.26 1.5 0.78 2.92 1.52 4.25h-12.29c0.78-1.13 1.33-2.48 1.6-4.09 0.07-0.44 0.11-1.01 0.16-1.7s0.07-1.42 0.07-2.17v-84.593c0-1.61-0.07-2.882-0.23-3.789-0.28-1.609-0.82-2.97-1.6-4.096h25.39c1.33 0 2.76 0.292 4.31 0.877s2.75 1.361 3.61 2.297c0.87 0.951 1.48 2.064 1.88 3.35 0.39 1.273 0.58 3.532 0.58 4.702zm109.12 90.662h-33.04c0.77-1.13 1.32-2.49 1.59-4.1 0.07-0.44 0.11-1.01 0.16-1.7 0.05-0.68 0.07-1.42 0.07-2.16l0.3-86.043c0.01-1.61-0.08-2.883-0.23-3.789-0.28-1.609-0.82-2.97-1.6-4.096h13.01c-1.63 2.867-2.42 5.486-2.43 7.885l-0.3 85.293h14.59c2.31 0 4.94-0.82 7.88-2.456v11.166zm-1.5-19.893h-12.29c0.78-1.126 1.33-2.485 1.6-4.096 0.07-0.437 0.11-1.009 0.16-1.697 0.05-0.687 0.07-1.419 0.07-2.165v-66.152c0-1.61-0.08-2.882-0.23-3.789-0.28-1.609-0.82-2.97-1.6-4.096h12.31c-0.74 1.272-1.21 2.573-1.42 3.891-0.21 1.301-0.31 2.648-0.31 3.994v66.152c0 0.746 0.02 1.433 0.04 2.063 0.03 0.628 0.07 1.171 0.15 1.638 0.26 1.508 0.78 2.926 1.52 4.257zm31.39-1.774-0.07-1.215-0.28-1.214-13.34-38.396-0.25 54.532c0 0.74 0.02 1.43 0.05 2.06 0.02 0.63 0.06 1.17 0.14 1.64 0.26 1.51 0.78 2.92 1.52 4.26h-12.28c0.77-1.13 1.32-2.49 1.59-4.1 0.07-0.44 0.11-1.01 0.16-1.7 0.05-0.68 0.07-1.42 0.07-2.16l0.26-86.043c0-1.61-0.08-2.883-0.24-3.789-0.28-1.609-0.82-2.97-1.59-4.096h14.07c-0.29 0.833-0.44 1.653-0.44 2.457 0 0.702-0.02 18.664 0.06 18.887l10.57 28.87v-42.344-0.585-0.468c0-1.214-0.08-2.118-0.19-2.721-0.31-1.606-0.84-2.985-1.61-4.096h12.32c-0.71 1.243-1.21 2.526-1.45 3.861-0.11 0.626-0.16 1.273-0.21 1.961-0.05 0.672-0.07 1.361-0.07 2.063v96.233c0 0.73 0.02 1.41 0.04 2.03 0.02 0.63 0.07 1.18 0.15 1.64 0.26 1.51 0.77 2.93 1.52 4.26h-12.29c0.78-1.07 1.33-2.41 1.6-4.07 0.16-0.97 0.19-2.26 0.19-3.86v-23.897z"/>
</svg>
